<mxfile host="app.diagrams.net" agent="Mozilla/5.0 (Macintosh; Intel Mac OS X 10_15_7) AppleWebKit/537.36 (KHTML, like Gecko) Chrome/132.0.0.0 Safari/537.36" version="26.1.1">
  <diagram name="Page-1" id="5ytnFHVCYQ5nWoHdkLvS">
    <mxGraphModel dx="1090" dy="633" grid="1" gridSize="10" guides="1" tooltips="1" connect="1" arrows="1" fold="1" page="1" pageScale="1" pageWidth="827" pageHeight="1169" math="0" shadow="0">
      <root>
        <mxCell id="0" />
        <mxCell id="1" parent="0" />
        <mxCell id="YoQZz00WZt21mto1OvT9-1" style="edgeStyle=orthogonalEdgeStyle;rounded=0;orthogonalLoop=1;jettySize=auto;html=1;entryX=0.5;entryY=0;entryDx=0;entryDy=0;" edge="1" parent="1" source="N5o5-2vSh2YZ8sFVEgd_-1" target="N5o5-2vSh2YZ8sFVEgd_-3">
          <mxGeometry relative="1" as="geometry" />
        </mxCell>
        <mxCell id="N5o5-2vSh2YZ8sFVEgd_-1" value="" style="ellipse;html=1;shape=startState;fillColor=#000000;strokeColor=#000000;" parent="1" vertex="1">
          <mxGeometry x="375" y="180" width="30" height="30" as="geometry" />
        </mxCell>
        <mxCell id="YoQZz00WZt21mto1OvT9-3" style="edgeStyle=orthogonalEdgeStyle;rounded=0;orthogonalLoop=1;jettySize=auto;html=1;entryX=0.5;entryY=0;entryDx=0;entryDy=0;" edge="1" parent="1" source="N5o5-2vSh2YZ8sFVEgd_-3" target="N5o5-2vSh2YZ8sFVEgd_-5">
          <mxGeometry relative="1" as="geometry" />
        </mxCell>
        <mxCell id="N5o5-2vSh2YZ8sFVEgd_-3" value="Admin navigates to verifications page" style="rounded=1;whiteSpace=wrap;html=1;arcSize=40;fontColor=#000000;fillColor=#FFFFFF;strokeColor=#000000;" parent="1" vertex="1">
          <mxGeometry x="330" y="250" width="120" height="40" as="geometry" />
        </mxCell>
        <mxCell id="N5o5-2vSh2YZ8sFVEgd_-5" value="System retrieves pending verification requests" style="rounded=1;whiteSpace=wrap;html=1;arcSize=40;fontColor=#000000;fillColor=#FFFFFF;strokeColor=#000000;" parent="1" vertex="1">
          <mxGeometry x="330" y="350" width="120" height="50" as="geometry" />
        </mxCell>
        <mxCell id="N5o5-2vSh2YZ8sFVEgd_-6" value="" style="edgeStyle=orthogonalEdgeStyle;html=1;verticalAlign=bottom;endArrow=classic;endSize=8;strokeColor=light-dark(#000000, #ff9090);rounded=0;endFill=1;" parent="1" source="N5o5-2vSh2YZ8sFVEgd_-5" edge="1">
          <mxGeometry relative="1" as="geometry">
            <mxPoint x="390" y="450" as="targetPoint" />
          </mxGeometry>
        </mxCell>
        <mxCell id="N5o5-2vSh2YZ8sFVEgd_-7" value="Admin reviews verification request" style="rounded=1;whiteSpace=wrap;html=1;arcSize=40;fontColor=#000000;fillColor=#FFFFFF;strokeColor=#000000;" parent="1" vertex="1">
          <mxGeometry x="330" y="450" width="120" height="40" as="geometry" />
        </mxCell>
        <mxCell id="N5o5-2vSh2YZ8sFVEgd_-8" value="" style="edgeStyle=orthogonalEdgeStyle;html=1;verticalAlign=bottom;endArrow=open;endSize=8;strokeColor=light-dark(#000000, #ff9090);rounded=0;" parent="1" source="N5o5-2vSh2YZ8sFVEgd_-7" edge="1">
          <mxGeometry relative="1" as="geometry">
            <mxPoint x="390" y="550" as="targetPoint" />
          </mxGeometry>
        </mxCell>
        <mxCell id="N5o5-2vSh2YZ8sFVEgd_-14" value="" style="edgeStyle=orthogonalEdgeStyle;rounded=0;orthogonalLoop=1;jettySize=auto;html=1;" parent="1" source="N5o5-2vSh2YZ8sFVEgd_-9" target="N5o5-2vSh2YZ8sFVEgd_-12" edge="1">
          <mxGeometry relative="1" as="geometry" />
        </mxCell>
        <mxCell id="N5o5-2vSh2YZ8sFVEgd_-18" style="edgeStyle=orthogonalEdgeStyle;rounded=0;orthogonalLoop=1;jettySize=auto;html=1;exitX=1;exitY=0.5;exitDx=0;exitDy=0;entryX=1;entryY=0.5;entryDx=0;entryDy=0;" parent="1" source="N5o5-2vSh2YZ8sFVEgd_-9" target="N5o5-2vSh2YZ8sFVEgd_-15" edge="1">
          <mxGeometry relative="1" as="geometry">
            <Array as="points">
              <mxPoint x="540" y="570" />
              <mxPoint x="540" y="760" />
            </Array>
          </mxGeometry>
        </mxCell>
        <mxCell id="N5o5-2vSh2YZ8sFVEgd_-21" style="edgeStyle=orthogonalEdgeStyle;rounded=0;orthogonalLoop=1;jettySize=auto;html=1;exitX=0;exitY=0.5;exitDx=0;exitDy=0;entryX=1;entryY=0.5;entryDx=0;entryDy=0;" parent="1" source="N5o5-2vSh2YZ8sFVEgd_-9" target="N5o5-2vSh2YZ8sFVEgd_-19" edge="1">
          <mxGeometry relative="1" as="geometry" />
        </mxCell>
        <mxCell id="N5o5-2vSh2YZ8sFVEgd_-9" value="" style="rhombus;whiteSpace=wrap;html=1;" parent="1" vertex="1">
          <mxGeometry x="370" y="550" width="40" height="40" as="geometry" />
        </mxCell>
        <mxCell id="N5o5-2vSh2YZ8sFVEgd_-10" value="Approves" style="text;strokeColor=none;align=center;fillColor=none;html=1;verticalAlign=middle;whiteSpace=wrap;rounded=0;" parent="1" vertex="1">
          <mxGeometry x="400" y="600" width="40" height="20" as="geometry" />
        </mxCell>
        <mxCell id="N5o5-2vSh2YZ8sFVEgd_-11" value="Request for clarification" style="text;strokeColor=none;align=center;fillColor=none;html=1;verticalAlign=middle;whiteSpace=wrap;rounded=0;" parent="1" vertex="1">
          <mxGeometry x="290" y="540" width="70" height="20" as="geometry" />
        </mxCell>
        <mxCell id="N5o5-2vSh2YZ8sFVEgd_-35" value="" style="edgeStyle=orthogonalEdgeStyle;rounded=0;orthogonalLoop=1;jettySize=auto;html=1;" parent="1" source="N5o5-2vSh2YZ8sFVEgd_-12" target="N5o5-2vSh2YZ8sFVEgd_-15" edge="1">
          <mxGeometry relative="1" as="geometry" />
        </mxCell>
        <mxCell id="N5o5-2vSh2YZ8sFVEgd_-12" value="System promotes user into a verified user" style="rounded=1;whiteSpace=wrap;html=1;arcSize=40;fontColor=#000000;fillColor=#FFFFFF;strokeColor=#000000;" parent="1" vertex="1">
          <mxGeometry x="330" y="650" width="120" height="45" as="geometry" />
        </mxCell>
        <mxCell id="N5o5-2vSh2YZ8sFVEgd_-36" value="" style="edgeStyle=orthogonalEdgeStyle;rounded=0;orthogonalLoop=1;jettySize=auto;html=1;" parent="1" source="N5o5-2vSh2YZ8sFVEgd_-15" target="N5o5-2vSh2YZ8sFVEgd_-28" edge="1">
          <mxGeometry relative="1" as="geometry" />
        </mxCell>
        <mxCell id="N5o5-2vSh2YZ8sFVEgd_-15" value="System notifies the user" style="rounded=1;whiteSpace=wrap;html=1;arcSize=40;fontColor=#000000;fillColor=#FFFFFF;strokeColor=#000000;" parent="1" vertex="1">
          <mxGeometry x="330" y="740" width="120" height="40" as="geometry" />
        </mxCell>
        <mxCell id="N5o5-2vSh2YZ8sFVEgd_-19" value="Admin addresses the issue" style="rounded=1;whiteSpace=wrap;html=1;arcSize=40;fontColor=#000000;fillColor=#FFFFFF;strokeColor=#000000;" parent="1" vertex="1">
          <mxGeometry x="120" y="550" width="120" height="40" as="geometry" />
        </mxCell>
        <mxCell id="N5o5-2vSh2YZ8sFVEgd_-20" value="" style="edgeStyle=orthogonalEdgeStyle;html=1;verticalAlign=bottom;endArrow=classic;endSize=8;strokeColor=light-dark(#000000, #ff9090);rounded=0;endFill=1;" parent="1" source="N5o5-2vSh2YZ8sFVEgd_-19" edge="1" target="N5o5-2vSh2YZ8sFVEgd_-26">
          <mxGeometry relative="1" as="geometry">
            <mxPoint x="180" y="650" as="targetPoint" />
          </mxGeometry>
        </mxCell>
        <mxCell id="N5o5-2vSh2YZ8sFVEgd_-22" value="Rejects" style="text;strokeColor=none;align=center;fillColor=none;html=1;verticalAlign=middle;whiteSpace=wrap;rounded=0;" parent="1" vertex="1">
          <mxGeometry x="430" y="540" width="40" height="20" as="geometry" />
        </mxCell>
        <mxCell id="N5o5-2vSh2YZ8sFVEgd_-29" style="edgeStyle=orthogonalEdgeStyle;rounded=0;orthogonalLoop=1;jettySize=auto;html=1;exitX=0.5;exitY=1;exitDx=0;exitDy=0;entryX=0;entryY=0.5;entryDx=0;entryDy=0;" parent="1" source="N5o5-2vSh2YZ8sFVEgd_-26" target="N5o5-2vSh2YZ8sFVEgd_-28" edge="1">
          <mxGeometry relative="1" as="geometry" />
        </mxCell>
        <mxCell id="N5o5-2vSh2YZ8sFVEgd_-26" value="System notifies the user with the admin notes" style="rounded=1;whiteSpace=wrap;html=1;arcSize=40;fontColor=#000000;fillColor=#FFFFFF;strokeColor=#000000;" parent="1" vertex="1">
          <mxGeometry x="120" y="650" width="120" height="50" as="geometry" />
        </mxCell>
        <mxCell id="N5o5-2vSh2YZ8sFVEgd_-28" value="" style="ellipse;html=1;shape=endState;fillColor=#000000;strokeColor=#000000;" parent="1" vertex="1">
          <mxGeometry x="375" y="820" width="30" height="30" as="geometry" />
        </mxCell>
      </root>
    </mxGraphModel>
  </diagram>
</mxfile>
